<svg width="60" height="60" viewBox="0 0 60 60" fill="none" xmlns="http://www.w3.org/2000/svg">
<g clip-path="url(#clip0_99_81)">
<path d="M52.5 60H35V43.75H25V60H7.5V33.75C7.5 33.4185 7.6317 33.1005 7.86612 32.8661C8.10054 32.6317 8.41848 32.5 8.75 32.5C9.08152 32.5 9.39946 32.6317 9.63388 32.8661C9.8683 33.1005 10 33.4185 10 33.75V57.5H22.5V41.25H37.5V57.5H50V35C50 34.6685 50.1317 34.3505 50.3661 34.1161C50.6005 33.8817 50.9185 33.75 51.25 33.75C51.5815 33.75 51.8995 33.8817 52.1339 34.1161C52.3683 34.3505 52.5 34.6685 52.5 35V60Z" fill="#0B5593"/>
<path d="M58.7498 33.75C58.4279 33.7505 58.1184 33.6264 57.886 33.4038L29.9998 6.73002L2.11351 33.4038C1.87399 33.633 1.55321 33.7577 1.22174 33.7505C0.890264 33.7432 0.575257 33.6045 0.34601 33.365C0.116764 33.1255 -0.00794291 32.8047 -0.000675872 32.4732C0.00659116 32.1418 0.145237 31.8268 0.38476 31.5975L29.9998 3.27002L59.6135 31.5963C59.794 31.7688 59.9187 31.9913 59.9716 32.2353C60.0245 32.4793 60.0031 32.7336 59.9101 32.9653C59.8172 33.197 59.657 33.3956 59.4502 33.5355C59.2434 33.6753 58.9994 33.7501 58.7498 33.75ZM48.7498 18.75C48.4182 18.75 48.1003 18.6183 47.8659 18.3839C47.6315 18.1495 47.4998 17.8315 47.4998 17.5V10H39.9998C39.6682 10 39.3503 9.86832 39.1159 9.6339C38.8815 9.39948 38.7498 9.08154 38.7498 8.75002C38.7498 8.4185 38.8815 8.10056 39.1159 7.86614C39.3503 7.63172 39.6682 7.50002 39.9998 7.50002H49.9998V17.5C49.9998 17.8315 49.8681 18.1495 49.6336 18.3839C49.3992 18.6183 49.0813 18.75 48.7498 18.75Z" fill="#0B5593"/>
</g>
<defs>
<clipPath id="clip0_99_81">
<rect width="60" height="60" fill="white"/>
</clipPath>
</defs>
</svg>
