<svg width="42" height="50" viewBox="0 0 42 50" fill="none" xmlns="http://www.w3.org/2000/svg">
<path d="M26.337 10.4166C28.0463 10.8136 29.6172 11.8088 30.8486 13.2748C32.0801 14.7408 32.916 16.6109 33.2495 18.6458M26.337 2.08325C29.8883 2.55291 33.1998 4.44612 35.7279 7.45202C38.2561 10.4579 39.8505 14.3979 40.2495 18.6249M38.4995 35.2499V41.4999C38.5015 42.0801 38.4017 42.6545 38.2064 43.1861C38.0112 43.7177 37.7248 44.1949 37.3657 44.5872C37.0065 44.9794 36.5825 45.278 36.1208 45.4639C35.6591 45.6498 35.1699 45.7188 34.6845 45.6666C29.2995 44.97 24.1268 42.7794 19.582 39.2708C15.3537 36.0721 11.7689 31.8045 9.08202 26.7708C6.12448 21.3358 4.28394 15.1478 3.70952 8.70825C3.66579 8.13214 3.7233 7.5515 3.87839 7.0033C4.03349 6.4551 4.28277 5.95136 4.61036 5.52413C4.93795 5.09691 5.33668 4.75556 5.78115 4.52184C6.22563 4.28812 6.70611 4.16713 7.19202 4.16659H12.442C13.2913 4.15663 14.1147 4.51467 14.7586 5.17395C15.4025 5.83323 15.8232 6.74877 15.942 7.74992C16.1636 9.75006 16.5746 11.7139 17.167 13.6041C17.4025 14.3498 17.4534 15.1602 17.3139 15.9393C17.1743 16.7184 16.85 17.4335 16.3795 17.9999L14.157 20.6458C16.6482 25.8615 20.2758 30.18 24.657 33.1458L26.8795 30.4999C27.3553 29.9398 27.956 29.5538 28.6105 29.3876C29.2649 29.2215 29.9457 29.2821 30.572 29.5624C32.1597 30.2677 33.8094 30.757 35.4895 31.0208C36.3396 31.1635 37.116 31.6733 37.671 32.453C38.2259 33.2328 38.5208 34.2282 38.4995 35.2499Z" stroke="white" stroke-width="2" stroke-linecap="round" stroke-linejoin="round"/>
</svg>
