<svg width="60" height="60" viewBox="0 0 60 60" fill="none" xmlns="http://www.w3.org/2000/svg">
<path d="M51.1398 22.7834V34.3144C51.1398 35.2905 50.6773 36.2284 49.8978 36.8259L47.6118 38.6068C47.5789 38.0457 47.3889 37.4864 47.0338 36.9933C46.4603 36.196 45.5299 35.7202 44.5463 35.7202C43.9239 35.7202 43.3229 35.9075 42.8089 36.2613L34.1077 42.2565C32.8825 43.1008 32.151 44.4933 32.151 45.9816V52.0452H31.9743C31.5979 52.0452 31.2925 52.3506 31.2925 52.727V58.1922C31.2925 58.5686 31.5979 58.874 31.9743 58.874C32.3508 58.874 32.6562 58.5686 32.6562 58.1922V53.4088H32.8328H43.9568H44.1734V58.1922C44.1734 58.5686 44.4788 58.874 44.8552 58.874C45.2316 58.874 45.537 58.5686 45.537 58.1922V52.727C45.537 52.3506 45.2316 52.0452 44.8552 52.0452H44.6386V51.4406C44.6386 50.4685 45.0754 49.5652 45.838 48.9624L55.8433 41.0447C56.9335 40.1813 57.5594 38.8882 57.5594 37.4971V22.7834C57.5594 21.0136 56.1194 19.5736 54.3492 19.5736C52.5798 19.5736 51.1398 21.0136 51.1398 22.7834ZM56.1958 22.7834V37.4971C56.1958 38.4688 55.759 39.3725 54.9964 39.9753L44.991 47.8926C43.9008 48.7559 43.2749 50.049 43.2749 51.4406V52.0452H33.5146V45.9816C33.5146 44.942 34.026 43.969 34.8818 43.3795L43.583 37.3843C44.319 36.8778 45.4083 37.0687 45.9276 37.7905C46.4683 38.5415 46.3174 39.5714 45.5743 40.1409L41.3795 43.4625C41.0857 43.6956 41.0351 44.123 41.2668 44.4182C41.4985 44.7121 41.9255 44.7654 42.222 44.535L50.7314 37.905C51.8412 37.0541 52.5035 35.7117 52.5035 34.3144V22.7834C52.5035 21.7655 53.3318 20.9372 54.3492 20.9372C55.3675 20.9372 56.1958 21.7655 56.1958 22.7834ZM4.1574 41.0451L14.1627 48.9624C14.9253 49.5652 15.3621 50.4685 15.3621 51.4406V52.0452H15.1446C14.7682 52.0452 14.4628 52.3506 14.4628 52.727V58.1922C14.4628 58.5686 14.7682 58.874 15.1446 58.874C15.521 58.874 15.8264 58.5686 15.8264 58.1922V53.4088H16.0439H27.167H27.3437V58.1922C27.3437 58.5686 27.6491 58.874 28.0255 58.874C28.4019 58.874 28.7073 58.5686 28.7073 58.1922V52.727C28.7073 52.3506 28.4019 52.0452 28.0255 52.0452H27.8488V45.9816C27.8488 44.4933 27.1173 43.1008 25.8921 42.2565L17.1909 36.2613C16.6769 35.9075 16.0768 35.7202 15.4545 35.7202C14.4708 35.7202 13.5404 36.196 12.966 36.9933C12.6206 37.4727 12.4324 38.0222 12.3978 38.5788L10.0976 36.8228C9.32342 36.2289 8.86088 35.2909 8.86088 34.3144V22.7834C8.86088 21.0136 7.4209 19.5736 5.65066 19.5736C3.88042 19.5736 2.44043 21.0136 2.44043 22.7834V37.4971C2.44043 38.8887 3.06632 40.1817 4.1574 41.0451ZM3.80407 22.7834C3.80407 21.7655 4.63237 20.9372 5.65066 20.9372C6.66895 20.9372 7.49725 21.7655 7.49725 22.7834V34.3144C7.49725 35.7122 8.15953 37.0545 9.26926 37.9059L13.3699 41.0331C13.4392 41.097 13.512 41.1583 13.5901 41.2178L18.5537 44.994C18.8538 45.223 19.2808 45.1644 19.509 44.8648C19.7371 44.5656 19.6794 44.1381 19.3802 43.9095L14.2959 40.0317C13.6665 39.4502 13.5706 38.4869 14.0722 37.7905C14.5915 37.0687 15.6791 36.8756 16.4168 37.3843L25.118 43.3795C25.9738 43.969 26.4852 44.942 26.4852 45.9816V52.0452H16.7258V51.4406C16.7258 50.049 16.0999 48.7559 15.0097 47.8926L5.00346 39.9753C4.24174 39.3725 3.80407 38.4692 3.80407 37.4971V22.7834ZM29.366 29.4848V41.4521C29.366 41.8286 29.6714 42.134 30.0478 42.134C30.4243 42.134 30.7297 41.8286 30.7297 41.4521V29.4848C30.7297 29.1084 30.4243 28.803 30.0478 28.803C29.6714 28.803 29.366 29.1084 29.366 29.4848ZM39.8055 24.1004C39.7833 24.0969 39.2373 24.0143 38.4543 24.0143C36.9743 24.0143 34.9227 24.3006 33.559 25.6647C31.3973 27.8264 31.969 31.746 31.9948 31.912C32.04 32.2063 32.2709 32.4376 32.5656 32.4824C34.4988 32.7917 37.2827 32.448 38.8121 30.9181C40.9738 28.7564 40.4021 24.8368 40.3763 24.6708C40.3311 24.3765 40.1002 24.1452 39.8055 24.1004ZM33.2918 31.1849C33.0283 27.1084 34.8363 25.3779 38.4543 25.3779C38.6913 25.3779 38.9026 25.3868 39.0784 25.3979C39.3391 29.5513 37.4299 31.4462 33.2918 31.1849ZM20.2893 24.1004C19.9946 24.1452 19.7638 24.3765 19.7185 24.6708C18.8232 30.4439 22.541 33.2807 27.5301 32.4824C27.8248 32.4376 28.0557 32.2063 28.1009 31.912C28.1267 31.746 28.6984 27.8264 26.5367 25.6647C25.0112 24.1397 22.2244 23.7908 20.2893 24.1004ZM26.803 31.1849C22.5781 31.4517 20.7603 29.4775 21.0164 25.3979C25.2413 25.1312 27.0591 27.1054 26.803 31.1849ZM34.8232 20.2536C38.611 22.3169 41.3762 19.3247 37.7556 15.4654C41.2419 15.073 41.8101 13.5584 41.8101 12.6143C41.8101 11.5982 41.2171 10.3775 38.6327 9.88477C41.6402 6.77403 39.4937 3.6409 35.4935 5.42498C36.1832 1.11514 32.589 -0.152838 30.3639 3.57129C28.499 -0.272862 24.7957 0.573559 25.102 5.00151C23.2581 3.98189 21.7861 4.03294 20.9268 5.05256C20.1979 5.92126 19.8987 7.41495 22.1279 9.77646C18.9958 10.1742 18.2847 11.4965 18.2847 12.6143C18.2847 13.4399 18.7251 14.7778 21.384 15.3207C18.4677 18.3897 20.5448 21.4953 24.4868 19.7729C23.8316 24.0081 27.365 25.2699 29.5756 21.6466C31.4545 25.4472 35.0878 24.4798 34.8232 20.2536ZM30.2911 19.8089C30.1988 19.5447 29.9555 19.3632 29.6759 19.3508C29.404 19.3384 29.1407 19.4931 29.0242 19.7538C27.1937 23.8449 24.9024 22.9722 26.1274 18.6783C26.2046 18.4093 26.1096 18.1207 25.8877 17.9503C25.6666 17.7803 25.363 17.7621 25.1224 17.9059C21.2579 20.2152 19.884 18.1825 23.3504 15.3659C23.5679 15.1897 23.6549 14.899 23.5715 14.6322C23.4871 14.3654 23.2492 14.1768 22.9695 14.1568C18.4194 13.8275 18.3624 11.1607 23.7286 11.0273C24.01 11.0202 24.2577 10.8414 24.3536 10.5768C24.4486 10.3118 24.3714 10.0162 24.1592 9.8315C20.1653 6.35342 21.6115 4.0319 25.5787 6.93022C25.8069 7.09624 26.1123 7.106 26.3476 6.95464C26.5846 6.80327 26.7045 6.52184 26.6494 6.24663C25.7511 1.73651 28.1768 1.09327 29.6475 5.43253C29.7371 5.69887 29.9822 5.88264 30.2636 5.89507C30.5441 5.90661 30.8051 5.74503 30.917 5.48713C32.7463 1.31675 35.1342 2.09121 33.8414 6.5356C33.7623 6.80549 33.8573 7.09624 34.0811 7.26714C34.3048 7.43803 34.6102 7.45401 34.8499 7.30886C38.8356 4.88661 40.1655 7.00854 36.6423 9.84926C36.4239 10.0259 36.3351 10.3185 36.4204 10.5861C36.5056 10.8542 36.7462 11.0424 37.0258 11.0606C41.6999 11.3631 41.8183 14.1234 36.1434 14.1954C35.8602 14.199 35.6089 14.377 35.5122 14.6428C35.4145 14.9087 35.4917 15.207 35.7057 15.3926C39.5532 18.729 38.3535 21.2259 34.3572 18.3422C34.1325 18.178 33.828 18.17 33.5928 18.3196C33.3575 18.4692 33.2368 18.7475 33.2883 19.0218C34.1175 23.3978 31.7587 24.0464 30.2911 19.8089Z" fill="#0B5593"/>
<path d="M34.44 12.585C34.44 10.1631 32.47 8.19312 30.0481 8.19312C27.6262 8.19312 25.6562 10.1631 25.6562 12.585C25.6562 15.0069 27.6262 16.9769 30.0481 16.9769C32.47 16.9769 34.44 15.0069 34.44 12.585ZM30.0481 15.6132C28.3782 15.6132 27.0199 14.2549 27.0199 12.585C27.0199 10.9151 28.3782 9.55675 30.0481 9.55675C31.718 9.55675 33.0763 10.9151 33.0763 12.585C33.0763 14.2549 31.718 15.6132 30.0481 15.6132Z" fill="#0B5593"/>
</svg>
