<svg width="48" height="47" viewBox="0 0 48 47" fill="none" xmlns="http://www.w3.org/2000/svg">
<path d="M8.37695 1.46875C8.18218 1.46875 7.99539 1.54612 7.85767 1.68384C7.71995 1.82157 7.64258 2.00836 7.64258 2.20312V5.14062C7.64258 5.33539 7.71995 5.52218 7.85767 5.65991C7.99539 5.79763 8.18218 5.875 8.37695 5.875H9.11133V41.125H8.37695C8.18218 41.125 7.99539 41.2024 7.85767 41.3401C7.71995 41.4778 7.64258 41.6646 7.64258 41.8594V44.7969C7.64258 44.9916 7.71995 45.1784 7.85767 45.3162C7.99539 45.4539 8.18218 45.5312 8.37695 45.5312H39.2207C39.4155 45.5312 39.6023 45.4539 39.74 45.3162C39.8777 45.1784 39.9551 44.9916 39.9551 44.7969V41.8594C39.9551 41.6646 39.8777 41.4778 39.74 41.3401C39.6023 41.2024 39.4155 41.125 39.2207 41.125H38.4863V5.875H39.2207C39.4155 5.875 39.6023 5.79763 39.74 5.65991C39.8777 5.52218 39.9551 5.33539 39.9551 5.14062V2.20312C39.9551 2.00836 39.8777 1.82157 39.74 1.68384C39.6023 1.54612 39.4155 1.46875 39.2207 1.46875H8.37695ZM9.11133 2.9375H38.4863V4.40625H9.11133V2.9375ZM10.5801 5.875H13.5205V13.5404C13.5205 18.4123 16.978 22.3808 21.5663 23.4089V25.1347C16.978 26.1628 13.5176 30.1343 13.5176 35.0062V41.125H10.5801V5.875ZM14.9893 5.875H32.6378V13.5404C32.6378 17.9246 29.4359 21.5098 25.2103 22.1722C25.0395 22.1992 24.8836 22.2856 24.7703 22.4162C24.6569 22.5467 24.5932 22.7131 24.5905 22.8861C24.5905 22.89 24.5905 22.8939 24.5905 22.8978V25.6488C24.5907 25.8215 24.6517 25.9886 24.763 26.1208C24.8742 26.253 25.0284 26.3417 25.1985 26.3714C25.2025 26.3724 25.2064 26.3734 25.2103 26.3743C29.4344 27.0368 32.6378 30.6205 32.6378 35.0062V41.125H14.9863V35.0062C14.9863 34.7315 14.9995 34.4583 15.023 34.191C15.3902 30.1813 18.4526 26.9942 22.4138 26.3743C22.5869 26.3474 22.7446 26.2594 22.8585 26.1264C22.9724 25.9933 23.0351 25.8239 23.0351 25.6488V22.8978C23.0351 22.7227 22.9724 22.5533 22.8585 22.4202C22.7446 22.2872 22.5869 22.1992 22.4138 22.1722C18.1882 21.5098 14.9893 17.9246 14.9893 13.5404V5.875ZM34.1065 5.875H37.0176V41.125H34.1065V35.0062C34.1065 34.7022 34.0918 34.3996 34.0654 34.1029C33.6688 29.6482 30.3612 26.0982 26.0607 25.1347V23.4089C30.6476 22.3808 34.1065 18.4123 34.1065 13.5389V5.875ZM17.138 7.34375V7.34669C17.0482 7.34649 16.9591 7.36401 16.876 7.39822C16.7929 7.43244 16.7173 7.4827 16.6536 7.54612C16.59 7.60953 16.5394 7.68488 16.5048 7.76784C16.4702 7.85081 16.4523 7.93977 16.4521 8.02966V14.0677C16.4521 14.1595 16.4706 14.2504 16.5065 14.335C16.6886 17.8556 19.0915 20.7887 22.336 21.4775C22.8383 21.5848 22.9675 21.761 23.0439 21.8903C23.1203 22.0224 23.1173 22.068 23.1173 22.068C23.1311 22.2394 23.209 22.3994 23.3354 22.5161C23.4618 22.6328 23.6275 22.6975 23.7996 22.6975C23.9716 22.6975 24.1373 22.6328 24.2637 22.5161C24.3901 22.3994 24.468 22.2394 24.4818 22.068C24.4818 22.068 24.4759 22.0239 24.5538 21.8932C24.6301 21.7625 24.7667 21.5818 25.2793 21.4717C28.5165 20.7769 30.9046 17.8497 31.0882 14.3335C31.1253 14.2487 31.1448 14.1573 31.1455 14.0648V8.02672C31.1453 7.93684 31.1274 7.84787 31.0929 7.76491C31.0583 7.68194 31.0077 7.6066 30.944 7.54318C30.8803 7.47976 30.8048 7.4295 30.7216 7.39529C30.6385 7.36107 30.5495 7.34356 30.4596 7.34375H17.138ZM17.821 8.71263H29.7766V13.9737C29.772 14.0009 29.7691 14.0284 29.7678 14.0559C29.7105 17.086 27.6631 19.5637 24.9915 20.1366C24.3834 20.2687 24.0955 20.6066 23.7988 20.9179C23.5051 20.6095 23.2216 20.2687 22.6194 20.1395C19.9434 19.5726 17.8871 17.0904 17.8298 14.0559C17.8288 14.0264 17.8259 13.997 17.821 13.9678V8.71263ZM23.8165 34.5758C23.8008 34.5763 23.7851 34.5773 23.7695 34.5788C23.6224 34.5854 23.4813 34.6393 23.3673 34.7324C23.2533 34.8256 23.1723 34.953 23.1364 35.0958H23.1335C23.0747 35.1531 22.8353 35.3337 22.1788 35.4703C20.2724 35.8731 18.5775 36.9552 17.4098 38.515C17.3335 38.6165 17.2869 38.7373 17.2753 38.8637C17.2637 38.9902 17.2875 39.1174 17.344 39.2311C17.4006 39.3448 17.4876 39.4405 17.5955 39.5075C17.7033 39.5746 17.8277 39.6103 17.9547 39.6107H29.643C29.7698 39.61 29.894 39.5741 30.0016 39.507C30.1093 39.4398 30.1961 39.3441 30.2525 39.2304C30.3089 39.1168 30.3325 38.9897 30.3209 38.8634C30.3092 38.737 30.2626 38.6164 30.1864 38.515C29.0187 36.9552 27.3238 35.8731 25.4174 35.4703C24.7609 35.3337 24.5215 35.1516 24.4642 35.0958H24.4612C24.4253 34.9503 24.3426 34.8207 24.2258 34.7268C24.1091 34.6328 23.9662 34.5798 23.8165 34.5758ZM23.7988 36.1988C24.1146 36.4382 24.4642 36.6688 25.1383 36.8083C26.2002 37.0287 27.1094 37.5721 27.9216 38.2389H19.676C20.4868 37.5736 21.3945 37.0287 22.4564 36.8083C23.132 36.6673 23.4845 36.4382 23.7988 36.1988ZM9.11133 42.5938H38.4863V44.0625H9.11133V42.5938Z" fill="white"/>
</svg>
