<svg width="60" height="60" viewBox="0 0 60 60" fill="none" xmlns="http://www.w3.org/2000/svg">
<path d="M20.8591 39.0832C21.0042 40.278 20.6843 41.368 19.9339 42.2354C19.0368 43.2728 17.5358 43.9637 15.8299 44.1472V45.4895C15.8299 45.7381 15.7311 45.9766 15.5553 46.1524C15.3795 46.3282 15.1411 46.427 14.8924 46.427C14.6438 46.427 14.4053 46.3282 14.2295 46.1524C14.0537 45.9766 13.9549 45.7381 13.9549 45.4895V44.1333C11.4405 43.8084 9.48222 42.2326 8.91902 39.9739C8.86289 39.7341 8.9034 39.4818 9.03179 39.2716C9.16018 39.0614 9.36613 38.9101 9.60513 38.8505C9.84413 38.791 10.097 38.8278 10.309 38.9531C10.5211 39.0785 10.6753 39.2822 10.7384 39.5203C11.2693 41.6504 13.4075 42.3578 15.0762 42.3197C16.5064 42.2856 17.8566 41.771 18.5157 41.0088C18.9219 40.5393 19.0796 39.9833 18.9977 39.3091C18.8054 37.7263 17.4969 36.8196 14.755 36.3695C10.4924 35.6695 9.50038 33.5167 9.41894 31.8339C9.3055 29.5015 10.941 27.5461 13.4885 26.9682C13.6428 26.9333 13.7984 26.9042 13.9549 26.8811V25.5128C13.9549 25.2641 14.0537 25.0257 14.2295 24.8499C14.4053 24.674 14.6438 24.5753 14.8924 24.5753C15.1411 24.5753 15.3795 24.674 15.5553 24.8499C15.7311 25.0257 15.8299 25.2641 15.8299 25.5128V26.8739C17.6715 27.1296 19.4968 28.1831 20.4037 30.3432C20.4514 30.4568 20.4763 30.5785 20.4769 30.7017C20.4775 30.8248 20.4538 30.9468 20.4072 31.0608C20.3607 31.1747 20.2921 31.2784 20.2055 31.3659C20.1188 31.4534 20.0158 31.5229 19.9023 31.5705C19.4258 31.7708 18.8754 31.5465 18.675 31.0691C17.7913 28.9646 15.5825 28.416 13.9031 28.7967C12.6462 29.0818 11.2082 30.0245 11.2916 31.7429C11.3177 32.2809 11.3969 33.9179 15.0587 34.5192C16.3828 34.7366 20.4117 35.398 20.8591 39.0832ZM40.9447 40.6504V59.0625C40.9447 59.3111 40.846 59.5496 40.6701 59.7254C40.4943 59.9012 40.2559 60 40.0072 60H34.9007C34.652 60 34.4136 59.9012 34.2378 59.7254C34.0619 59.5496 33.9632 59.3111 33.9632 59.0625V40.6504C33.9632 40.4017 34.0619 40.1633 34.2378 39.9874C34.4136 39.8116 34.652 39.7129 34.9007 39.7129H40.0072C40.2559 39.7129 40.4943 39.8116 40.6701 39.9874C40.846 40.1633 40.9447 40.4017 40.9447 40.6504ZM39.0697 41.5879H35.8382V58.125H39.0697V41.5879ZM50.4267 44.133V59.0625C50.4267 59.3111 50.3279 59.5496 50.1521 59.7254C49.9763 59.9012 49.7379 60 49.4892 60H44.3827C44.134 60 43.8956 59.9012 43.7197 59.7254C43.5439 59.5496 43.4452 59.3111 43.4452 59.0625V44.133C43.4452 43.8844 43.5439 43.646 43.7197 43.4701C43.8956 43.2943 44.134 43.1955 44.3827 43.1955H49.4892C49.7379 43.1955 49.9763 43.2943 50.1521 43.4701C50.3279 43.646 50.4267 43.8844 50.4267 44.133ZM48.5517 45.0705H45.3202V58.125H48.5517V45.0705ZM59.9086 33.9519V59.0624C59.9086 59.311 59.8098 59.5495 59.634 59.7253C59.4582 59.9011 59.2197 59.9999 58.9711 59.9999H53.8645C53.6159 59.9999 53.3774 59.9011 53.2016 59.7253C53.0258 59.5495 52.927 59.311 52.927 59.0624V33.9519C52.927 33.7033 53.0258 33.4648 53.2016 33.289C53.3774 33.1132 53.6159 33.0144 53.8645 33.0144H58.9711C59.2197 33.0144 59.4582 33.1132 59.634 33.289C59.8098 33.4648 59.9086 33.7033 59.9086 33.9519ZM58.0336 34.8894H54.802V58.1249H58.0336V34.8894ZM31.4627 49.2657V59.0624C31.4627 59.311 31.364 59.5495 31.1881 59.7253C31.0123 59.9011 30.7739 59.9999 30.5252 59.9999H25.4188C25.1701 59.9999 24.9317 59.9011 24.7559 59.7253C24.5801 59.5495 24.4813 59.311 24.4813 59.0624V49.2657C24.4813 49.0171 24.5801 48.7786 24.7559 48.6028C24.9317 48.427 25.1701 48.3282 25.4188 48.3282H30.5252C30.7739 48.3282 31.0123 48.427 31.1881 48.6028C31.364 48.7786 31.4627 49.0171 31.4627 49.2657ZM29.5877 50.2032H26.3563V58.1249H29.5877V50.2032ZM50.0052 33.1044C50.3424 33.6618 50.5204 34.301 50.5197 34.9525C50.5197 36.9285 48.912 38.5362 46.9359 38.5362C44.9599 38.5362 43.3522 36.9285 43.3522 34.9525C43.3522 34.7167 43.3758 34.4864 43.4194 34.2633L40.1389 32.6452C39.4819 33.3888 38.522 33.8591 37.4538 33.8591C36.7444 33.8598 36.051 33.6489 35.4622 33.2531L31.1954 36.9695C31.433 37.4568 31.5561 37.9918 31.5555 38.5339C31.5555 40.1545 30.474 41.5266 28.995 41.968C28.0064 44.4315 26.1889 46.6182 23.8307 48.1671C21.3111 49.8219 18.3332 50.6925 15.2016 50.6925C15.1117 50.6925 15.0219 50.6918 14.9318 50.6903C9.39363 50.7785 4.32984 48.1017 1.72277 43.7023C-0.611376 39.7636 -0.562157 35.0677 1.85788 30.8184C3.32237 28.2472 5.54425 25.3474 8.80031 21.7662C7.9207 21.2425 7.32984 20.2825 7.32984 19.1865C7.32984 17.7361 8.36448 16.5229 9.73464 16.2458L7.89796 14.4093C6.70593 13.2172 6.70593 11.2777 7.89784 10.0856C8.90671 9.07688 10.511 8.90402 11.7129 9.67535C11.7336 9.68878 11.7572 9.69698 11.7817 9.69924C11.8063 9.70151 11.831 9.69776 11.8538 9.68834C11.8766 9.67892 11.8967 9.6641 11.9125 9.64515C11.9283 9.62621 11.9392 9.60372 11.9443 9.57961C12.2491 8.18461 13.5054 7.17223 14.9317 7.17199C16.3583 7.17199 17.6147 8.18449 17.9193 9.57938C17.9244 9.6035 17.9353 9.62602 17.951 9.64499C17.9668 9.66397 17.9869 9.67882 18.0097 9.68826C18.0325 9.69771 18.0572 9.70147 18.0818 9.69922C18.1064 9.69697 18.13 9.68878 18.1507 9.67535C19.3521 8.90414 20.9565 9.07664 21.9655 10.0853C23.1577 11.2777 23.1577 13.2172 21.9655 14.4093L20.1291 16.2458C21.4991 16.523 22.5337 17.7361 22.5337 19.1866C22.5337 20.2825 21.9429 21.2425 21.0633 21.7662C24.3193 25.3474 26.5413 28.2472 28.0057 30.8184C28.8495 32.3 29.4104 33.8332 29.6787 35.3834C29.7764 35.4366 29.8713 35.4943 29.9633 35.5561L34.2302 31.8397C33.9927 31.3525 33.8695 30.8174 33.8701 30.2754C33.8701 28.2994 35.4778 26.6917 37.4538 26.6917C39.4298 26.6917 41.0375 28.2994 41.0375 30.2754C41.0375 30.5112 41.014 30.7414 40.9704 30.9646L44.2508 32.5827C44.9079 31.839 45.8678 31.3687 46.9358 31.3687C47.557 31.3687 48.1417 31.5278 48.6514 31.807L53.3483 26.9057C53.0111 26.3483 52.8332 25.7092 52.8339 25.0577C52.8339 23.0817 54.4416 21.474 56.4177 21.474C58.3937 21.474 60.0014 23.0817 60.0014 25.0577C60.0014 27.0338 58.3937 28.6414 56.4177 28.6414C55.818 28.6421 55.2278 28.4914 54.702 28.2032L50.0052 33.1044ZM9.22394 13.0835L12.3268 16.1864H17.537L20.6398 13.0835C20.8615 12.8618 20.9836 12.565 20.9836 12.2475C20.9836 11.93 20.8615 11.6332 20.6399 11.4116C20.2496 11.0214 19.629 10.9549 19.1636 11.2534C18.5965 11.6173 17.9146 11.6781 17.2925 11.4204C16.6702 11.1625 16.2311 10.6372 16.0875 9.97934C15.9696 9.43922 15.4836 9.04711 14.9319 9.04711C14.3803 9.04711 13.8943 9.43934 13.7763 9.97957C13.6329 10.6372 13.1938 11.1625 12.5718 11.4203C11.9491 11.6779 11.2672 11.6171 10.7004 11.2535C10.2349 10.9548 9.61417 11.0215 9.22382 11.4116C8.76304 11.8724 8.76304 12.6225 9.22394 13.0835ZM9.20507 19.1865C9.20507 19.807 9.70992 20.312 10.3305 20.312H19.5334C20.154 20.312 20.6589 19.8071 20.6589 19.1868C20.6589 18.5662 20.154 18.0613 19.5334 18.0613H10.3305C9.70992 18.0613 9.20507 18.5661 9.20507 19.1865ZM26.9435 41.9665C25.4672 41.5234 24.3881 40.1525 24.3881 38.5338C24.3881 36.6572 25.8383 35.1138 27.6769 34.9632C27.4111 33.8773 26.9762 32.7995 26.3764 31.7463C24.8701 29.1016 22.4909 26.0571 18.9041 22.1869H10.9597C7.37308 26.0571 4.9937 29.1015 3.48726 31.7463C1.37941 35.4475 1.32562 39.354 3.33597 42.7464C5.60308 46.572 10.045 48.8968 14.9161 48.8153H14.9477C20.1608 48.9062 24.91 46.1366 26.9435 41.9665ZM29.6807 38.5338C29.6807 37.5916 28.9141 36.8251 27.972 36.8251C27.0298 36.8251 26.2632 37.5916 26.2632 38.5338C26.2632 39.476 27.0298 40.2425 27.972 40.2425C28.9141 40.2425 29.6807 39.476 29.6807 38.5338ZM39.1627 30.2754C39.1627 29.3332 38.3961 28.5667 37.4539 28.5667C36.5118 28.5667 35.7452 29.3332 35.7452 30.2754C35.7452 31.2177 36.5118 31.9842 37.4539 31.9842C38.3961 31.9842 39.1627 31.2176 39.1627 30.2754ZM54.709 25.0576C54.709 25.9998 55.4755 26.7663 56.4178 26.7663C57.36 26.7663 58.1265 25.9998 58.1265 25.0576C58.1265 24.1154 57.36 23.3489 56.4178 23.3489C55.4755 23.3489 54.709 24.1154 54.709 25.0576ZM48.6447 34.9525C48.6447 34.0102 47.8781 33.2436 46.9359 33.2436C45.9938 33.2436 45.2272 34.0102 45.2272 34.9525C45.2272 35.8946 45.9938 36.6612 46.9359 36.6612C47.8781 36.6612 48.6447 35.8946 48.6447 34.9525ZM36.9139 11.7188C36.9139 8.5773 39.4698 6.02145 42.6111 6.02145C45.7527 6.02145 48.3084 8.5773 48.3084 11.7188C48.3084 14.8602 45.7526 17.4161 42.6111 17.4161C39.4698 17.4161 36.9139 14.8602 36.9139 11.7188ZM38.7889 11.7188C38.7889 13.8264 40.5036 15.5411 42.6111 15.5411C44.7188 15.5411 46.4334 13.8264 46.4334 11.7188C46.4334 9.61113 44.7188 7.89645 42.6111 7.89645C40.5036 7.89645 38.7889 9.61113 38.7889 11.7188ZM30.8925 12.7962V10.6413C30.8925 10.4519 30.9499 10.2669 31.0571 10.1107C31.1644 9.9545 31.3164 9.83447 31.4932 9.76641L32.831 9.25148C33.0694 8.30035 33.447 7.38964 33.9514 6.54879L33.3691 5.23758C33.2922 5.06444 33.2696 4.87206 33.3042 4.68579C33.3388 4.49953 33.429 4.32811 33.563 4.19414L35.0866 2.67047C35.2206 2.53651 35.392 2.44629 35.5783 2.41169C35.7646 2.37709 35.9569 2.39973 36.1301 2.47664L37.4414 3.05906C38.2822 2.55467 39.1929 2.17713 40.144 1.93863L40.659 0.600703C40.7271 0.423907 40.8471 0.271875 41.0032 0.164641C41.1594 0.0574077 41.3444 5.78499e-06 41.5338 0L43.6887 0C43.8781 -1.63669e-06 44.0631 0.0573957 44.2193 0.164629C44.3755 0.271861 44.4955 0.423898 44.5636 0.600703L45.0786 1.93863C46.0297 2.17713 46.9403 2.55467 47.7811 3.05906L49.0924 2.47664C49.2655 2.39974 49.4579 2.3771 49.6442 2.41171C49.8304 2.44631 50.0018 2.53652 50.1357 2.67047L51.6595 4.19414C51.7935 4.3281 51.8838 4.49951 51.9184 4.68577C51.953 4.87204 51.9304 5.06443 51.8535 5.23758L51.2713 6.54844C51.7758 7.38947 52.1534 8.30033 52.392 9.2516L53.7293 9.76641C53.9061 9.83447 54.0581 9.9545 54.1654 10.1107C54.2726 10.2669 54.33 10.4519 54.33 10.6413V12.7962C54.33 12.9856 54.2726 13.1706 54.1654 13.3268C54.0581 13.483 53.9061 13.603 53.7293 13.6711L52.3914 14.1861C52.1529 15.1371 51.7754 16.0477 51.2709 16.8885L51.8535 18.1998C51.9304 18.3729 51.953 18.5653 51.9184 18.7516C51.8838 18.9379 51.7936 19.1093 51.6597 19.2432L50.136 20.7669C50.002 20.9009 49.8306 20.9911 49.6443 21.0258C49.4581 21.0604 49.2657 21.0378 49.0925 20.9609L47.7817 20.3787C46.9406 20.8832 46.0297 21.2608 45.0784 21.4993L44.5636 22.8368C44.4956 23.0136 44.3755 23.1657 44.2193 23.2729C44.0632 23.3801 43.8781 23.4375 43.6887 23.4375H41.5338C41.3444 23.4375 41.1594 23.3801 41.0032 23.2729C40.847 23.1656 40.727 23.0136 40.6589 22.8368L40.1439 21.4989C39.1928 21.2604 38.2822 20.8828 37.4414 20.3784L36.13 20.9609C35.9568 21.0378 35.7644 21.0605 35.5781 21.0258C35.3919 20.9912 35.2205 20.9009 35.0865 20.7669L33.5629 19.2432C33.4289 19.1093 33.3387 18.9379 33.3041 18.7516C33.2695 18.5653 33.2921 18.3729 33.369 18.1998L33.9512 16.8889C33.4468 16.0479 33.0691 15.137 32.8305 14.1858L31.4931 13.671C31.3163 13.6029 31.1643 13.4829 31.0571 13.3267C30.9499 13.1706 30.8925 12.9856 30.8925 12.7962ZM32.7675 12.1525L33.9725 12.6163C34.1205 12.6733 34.2516 12.7668 34.3536 12.8882C34.4556 13.0096 34.5251 13.1549 34.5557 13.3105C34.7641 14.3756 35.1839 15.3882 35.7901 16.2884C35.8785 16.42 35.9321 16.5719 35.9458 16.7298C35.9595 16.8878 35.933 17.0466 35.8686 17.1915L35.344 18.3728L35.9572 18.9861L37.1391 18.4613C37.284 18.3969 37.4428 18.3704 37.6007 18.3841C37.7586 18.3978 37.9105 18.4513 38.0421 18.5396C38.9497 19.1489 39.9513 19.5642 41.0193 19.7739C41.1748 19.8044 41.3201 19.874 41.4415 19.976C41.5629 20.0779 41.6565 20.209 41.7135 20.357L42.1775 21.5625H43.0448L43.5087 20.3576C43.5656 20.2096 43.6592 20.0785 43.7806 19.9764C43.902 19.8744 44.0473 19.8049 44.2029 19.7743C45.268 19.5659 46.2806 19.1462 47.1807 18.5399C47.3124 18.4515 47.4643 18.398 47.6222 18.3842C47.7802 18.3705 47.939 18.397 48.0839 18.4614L49.2652 18.986L49.8784 18.3727L49.3535 17.1909C49.2892 17.046 49.2626 16.8872 49.2764 16.7292C49.2901 16.5713 49.3437 16.4194 49.432 16.2878C50.0381 15.3878 50.4578 14.3755 50.6664 13.3107C50.6969 13.1552 50.7664 13.0099 50.8684 12.8884C50.9704 12.767 51.1015 12.6735 51.2495 12.6165L52.4549 12.1525V11.2849L51.25 10.8211C51.102 10.7641 50.9709 10.6706 50.8689 10.5492C50.7669 10.4278 50.6974 10.2825 50.6668 10.1269C50.4584 9.06177 50.0386 8.04922 49.4324 7.14902C49.344 7.0174 49.2904 6.86551 49.2767 6.70756C49.263 6.54961 49.2895 6.39076 49.3539 6.24586L49.8785 5.06461L49.2652 4.45125L48.0834 4.97613C47.9386 5.04051 47.7797 5.06709 47.6218 5.05338C47.4639 5.03967 47.312 4.98611 47.1804 4.89773C46.2728 4.28848 45.2711 3.87316 44.2032 3.6634C44.0477 3.63282 43.9024 3.56329 43.781 3.46131C43.6596 3.35933 43.566 3.22823 43.509 3.08027L43.045 1.875H42.1777L41.7136 3.08051C41.6566 3.22847 41.563 3.35957 41.4416 3.46154C41.3202 3.56352 41.175 3.63305 41.0194 3.66363C39.9545 3.87209 38.9421 4.2918 38.0421 4.89797C37.9105 4.9863 37.7586 5.03982 37.6007 5.05353C37.4428 5.06724 37.2839 5.04069 37.1391 4.97637L35.9573 4.45148L35.3441 5.06484L35.8689 6.24645C35.9332 6.39135 35.9598 6.5502 35.946 6.70815C35.9323 6.8661 35.8787 7.01798 35.7904 7.14961C35.1842 8.04964 34.7646 9.06198 34.5561 10.1269C34.5256 10.2825 34.4561 10.4278 34.3541 10.5492C34.2521 10.6706 34.121 10.7642 33.973 10.8211L32.7676 11.285V12.1525H32.7675Z" fill="#0B5593"/>
</svg>
